<svg id="Layer_1" data-name="Layer 1" xmlns="http://www.w3.org/2000/svg" viewBox="0 0 404.82 338.6"><defs><style>.cls-1{fill:#fff;}</style></defs><title>favicon-01</title><rect y="1.28" width="404" height="337" rx="64.5" ry="64.5"/><path class="cls-1" d="M198.43,294.09c.88-1.74,1.41-3.8,2.68-5.18C211.22,278,215.14,264,219,250.39c7.1-24.7,13-49.76,19.31-74.68q10.18-40,20.3-80a9.61,9.61,0,0,0,.5-3.44c-.17-1.38-.47-3.48-1.35-3.87-1.25-.56-3.76-.47-4.54.41-9,10.13-20.29,18.5-25,31.93-1.74,4.94-.23,8.63,4.15,10.9,4.61,2.39,5.89,7.16,1.89,10.79-3.81,3.46-8.49,6.64-13.34,8.1-6.09,1.82-9.32,5.25-10.81,11q-8.43,32.24-16.85,64.49c-1.35,5.18-1.54,10,2.18,14.64,2.79,3.45,1.61,6.83-1.66,9.58-7.63,6.41-15.41,12.67-22.82,19.34-9,8.12-17.91,16.38-26.46,25-8.14,8.18-18,12.17-29.12,13.78a26.62,26.62,0,0,1-5.17-.27c-.23-.47-.46-1-.68-1.42,1.87-1.61,3.52-3.66,5.66-4.75,12.89-6.58,20.45-18,28.24-29.52,8-11.86,11.36-25.36,15.07-38.7,5.1-18.34,9.31-36.92,14-55.37,1.54-6.09,3.45-12.1,4.9-18.21.73-3.06,1.39-7-2.56-8.08-4.11-1.13-6.52,2.23-7.62,5.65-.84,2.61-.69,5.57-.77,8.38-.12,4-2.12,5.22-5.88,4.42-7.08-1.5-7.78-.88-9.79,6-2.24,7.63-4.5,15.29-7.32,22.72-4.22,11.1-13.24,17.48-23.44,22.55a99,99,0,0,1-41.56,10.74c-4.78.14-7.76,2.51-8.9,7.2-1.06,4.35-2.21,8.67-3.26,13-1.91,7.89-3.14,16-5.91,23.58-1.48,4-5.09,7.8-8.63,10.51A269.76,269.76,0,0,1,27,303.55c-3.09,1.86-7.33,1.81-11,2.63,1.1-3.29,2.08-6.62,3.33-9.86,2.74-7.1,6.2-14,8.32-21.25,7.78-26.74,15.19-53.58,22.64-80.41q13.57-48.91,27-97.87c.18-.64.61-1.32.51-1.91-.33-2-.84-4-1.28-5.93-1.92.64-4.25.8-5.7,2-4.59,3.82-9.31,7.66-13.12,12.2s-6.95,10-10,15.28A6.6,6.6,0,0,0,49,127.07c2.75,2.62,6,5.07,4.25,9.73-1.95,5.25-6,8.38-11.22,8.5a29.45,29.45,0,0,1-12.75-2.93c-4.92-2.31-6.55-7.44-4.09-12.28,3.15-6.19,6.34-12.6,10.79-17.82,15.89-18.66,34.13-34.76,53.87-49.4,15.47-11.47,29.82-24.44,44.61-36.81,3.82-3.19,7.33-6.77,11.21-9.88,3.46-2.77,5.55-2,5.35,2.15-.68,14.34,5.9,26.05,13.16,37.46,10.26,16.13,12,32.91,5.84,51-3.59,10.48-6.24,21.3-9,32-.48,1.84,0,5.42,1,5.82a9.8,9.8,0,0,0,7-.26,159.22,159.22,0,0,0,41.66-26.17c20-17.76,39.53-36.11,59.31-54.14q6.27-5.72,13-11c4.65-3.65,8.47-2.83,11.76,2.09,4.63,6.93,6.75,14.1,4.36,22.61-5.47,19.49-10.25,39.17-15.64,58.68-8,28.91-16.29,57.73-24.34,86.62a104.62,104.62,0,0,0-3,15.09c-.2,1.61,1,4.56,2.18,4.88a6.61,6.61,0,0,0,5.49-1.77,127.34,127.34,0,0,0,20.44-29.9C293.27,193,300,173.79,305.5,154.08c5.74-20.41,12.22-40.61,17.76-61.07a36.94,36.94,0,0,0,.2-16.08c-1.43-7.42-1.08-9.3,6-11.93,15.85-5.88,29.71-14.74,40.95-27.46,2.41-2.72,4.38-5.83,6.55-8.76l1.9.62c.16,2,.46,3.94.45,5.91-.06,10.3-5.33,19.07-8.44,28.49a62.06,62.06,0,0,1-11.15,19.79c-2.49,3.08-3.24,7.84-4,12a216.44,216.44,0,0,1-13.55,46.17c-9.05,21.22-17.47,42.7-26.24,64-7.29,17.72-18.46,32.63-31,47.19-15.06,17.49-34.07,27.14-54.74,34.9-7.28,2.73-14.78,4.92-22.27,7-2.82.8-5.89.71-8.84,1C198.85,295.32,198.64,294.71,198.43,294.09ZM111.13,95.77c-4.65,18.14-9.8,36.15-14.75,54.22-2.45,8.93-4.86,17.88-7.34,26.8-2.35,8.46-5.18,16.81-7,25.38-1.63,7.53,2.43,12.51,10.29,14.14,6.74,1.4,11-1.38,13.32-8.73,4.5-14.19,9-28.37,13.47-42.59,5-16,10.16-31.92,14.66-48a87.06,87.06,0,0,0,2-39c-1.5-8.42-7.13-13.74-14.36-17.44-4.17-2.13-7.12-.09-7.27,4.64-.08,2.66,0,5.33,0,8"/><path class="cls-1" d="M180.7,114.67c.88-8.86,3.54-16,11-21.28s13.74-11.52,20.76-17.1c1.43-1.13,3.73-1.17,5.62-1.71-.09,2,.51,4.46-.39,6C210.14,93.77,202,106.45,190,116.2a9.83,9.83,0,0,1-2.36,1.82c-1.48.56-3.5,1.53-4.53,1C181.9,118.3,181.47,116.17,180.7,114.67Z"/></svg>