<?xml version="1.0" encoding="utf-8"?>
<!-- Generator: Adobe Illustrator 24.1.2, SVG Export Plug-In . SVG Version: 6.00 Build 0)  -->
<svg version="1.1" id="Layer_1" xmlns="http://www.w3.org/2000/svg" xmlns:xlink="http://www.w3.org/1999/xlink" x="0px" y="0px"
	 viewBox="0 0 404.82 338.6" style="enable-background:new 0 0 404.82 338.6;" xml:space="preserve">
<style type="text/css">
	.st0{fill:#FFFFFF;}
</style>
<g>
	<path class="st0" d="M198.43,294.09c0.88-1.74,1.41-3.8,2.68-5.18c10.11-10.93,14.03-24.91,17.93-38.52
		c7.1-24.7,12.97-49.76,19.31-74.68c6.79-26.66,13.55-53.32,20.3-79.99c0.29-1.13,0.64-2.33,0.5-3.44
		c-0.17-1.38-0.47-3.48-1.35-3.87c-1.25-0.56-3.76-0.47-4.54,0.41c-8.98,10.13-20.29,18.5-25.01,31.93
		c-1.74,4.94-0.23,8.63,4.15,10.9c4.61,2.39,5.89,7.16,1.89,10.79c-3.81,3.46-8.49,6.64-13.34,8.1c-6.09,1.82-9.32,5.25-10.81,10.97
		c-5.62,21.49-11.23,42.99-16.85,64.49c-1.35,5.18-1.54,10.04,2.18,14.64c2.79,3.45,1.61,6.83-1.66,9.58
		c-7.63,6.41-15.41,12.67-22.82,19.34c-9.01,8.12-17.91,16.38-26.46,24.97c-8.14,8.18-18.02,12.17-29.12,13.78
		c-1.67,0.24-3.44-0.17-5.17-0.27c-0.23-0.47-0.46-0.95-0.68-1.42c1.87-1.61,3.52-3.66,5.66-4.75c12.89-6.58,20.45-18,28.24-29.52
		c8.02-11.86,11.36-25.36,15.07-38.7c5.1-18.34,9.31-36.92,13.97-55.37c1.54-6.09,3.45-12.1,4.9-18.21
		c0.73-3.06,1.39-6.99-2.56-8.08c-4.11-1.13-6.52,2.23-7.62,5.65c-0.84,2.61-0.69,5.57-0.77,8.38c-0.12,4.04-2.12,5.22-5.88,4.42
		c-7.08-1.5-7.78-0.88-9.79,5.97c-2.24,7.63-4.5,15.29-7.32,22.72c-4.22,11.1-13.24,17.48-23.44,22.55
		c-13.11,6.51-26.89,10.31-41.56,10.74c-4.78,0.14-7.76,2.51-8.9,7.2c-1.06,4.35-2.21,8.67-3.26,13.02
		c-1.91,7.89-3.14,16.01-5.91,23.58c-1.48,4.05-5.09,7.8-8.63,10.51c-7.91,6.05-16.2,11.68-24.74,16.82
		c-3.09,1.86-7.33,1.81-11.04,2.63c1.1-3.29,2.08-6.62,3.33-9.86c2.74-7.1,6.2-13.97,8.32-21.25c7.78-26.74,15.19-53.58,22.64-80.41
		c9.05-32.61,18.01-65.25,27.01-97.87c0.18-0.64,0.61-1.32,0.51-1.91c-0.33-1.99-0.84-3.96-1.28-5.93c-1.92,0.64-4.25,0.8-5.7,2.01
		c-4.59,3.82-9.31,7.66-13.12,12.2c-3.89,4.63-6.95,10.01-9.99,15.28c-1.69,2.93-1.37,6.05,1.34,8.63c2.75,2.62,5.98,5.07,4.25,9.73
		c-1.95,5.25-6.01,8.38-11.22,8.5c-4.25,0.1-8.86-1.1-12.75-2.93c-4.92-2.31-6.55-7.44-4.09-12.28c3.15-6.19,6.34-12.6,10.79-17.82
		c15.89-18.66,34.13-34.76,53.87-49.4c15.47-11.47,29.82-24.44,44.61-36.81c3.82-3.19,7.33-6.77,11.21-9.88
		c3.46-2.77,5.55-2,5.35,2.15c-0.68,14.34,5.9,26.05,13.16,37.46c10.26,16.13,12.02,32.91,5.84,50.98
		c-3.59,10.48-6.24,21.3-9.02,32.04c-0.48,1.84-0.02,5.42,0.98,5.82c1.99,0.82,4.95,0.65,7-0.26c15.14-6.69,29.29-15.2,41.66-26.17
		c20.02-17.76,39.53-36.11,59.31-54.14c4.18-3.81,8.51-7.47,12.96-10.96c4.65-3.65,8.47-2.83,11.76,2.09
		c4.63,6.93,6.75,14.1,4.36,22.61c-5.47,19.49-10.25,39.17-15.64,58.68c-7.98,28.91-16.29,57.73-24.34,86.62
		c-1.37,4.93-2.36,10.01-2.99,15.09c-0.2,1.61,1.04,4.56,2.18,4.88c1.58,0.44,4.3-0.48,5.49-1.77c8.21-8.98,15.03-18.9,20.44-29.9
		c9.06-18.41,15.75-37.61,21.29-57.32c5.74-20.41,12.22-40.61,17.76-61.07c1.36-5.04,1.2-10.9,0.2-16.08
		c-1.43-7.42-1.08-9.3,6.01-11.93c15.85-5.88,29.71-14.74,40.95-27.46c2.41-2.72,4.38-5.83,6.55-8.76c0.63,0.21,1.27,0.41,1.9,0.62
		c0.16,1.97,0.46,3.94,0.45,5.91c-0.06,10.3-5.33,19.07-8.44,28.49c-2.43,7.37-6.25,13.73-11.15,19.79c-2.49,3.08-3.24,7.84-4,11.98
		c-2.91,15.88-7.2,31.27-13.55,46.17c-9.05,21.22-17.47,42.7-26.24,64.04c-7.29,17.72-18.46,32.63-31,47.19
		c-15.06,17.49-34.07,27.14-54.74,34.9c-7.28,2.73-14.78,4.92-22.27,7.04c-2.82,0.8-5.89,0.71-8.84,1.02
		C198.85,295.32,198.64,294.71,198.43,294.09z M111.13,95.77c-4.65,18.14-9.8,36.15-14.75,54.22c-2.45,8.93-4.86,17.88-7.34,26.8
		c-2.35,8.46-5.18,16.81-7.03,25.38c-1.63,7.53,2.43,12.51,10.29,14.14c6.74,1.4,10.99-1.38,13.32-8.73
		c4.5-14.19,9.04-28.37,13.47-42.59c4.98-15.99,10.16-31.92,14.66-48.04c3.56-12.75,4.37-25.86,2.03-38.99
		c-1.5-8.42-7.13-13.74-14.36-17.44c-4.17-2.13-7.12-0.09-7.27,4.64c-0.08,2.66-0.02,5.33-0.02,8"/>
	<path class="st0" d="M180.7,114.67c0.88-8.86,3.54-15.95,10.96-21.28c7.27-5.21,13.74-11.52,20.76-17.1
		c1.43-1.13,3.73-1.17,5.62-1.71c-0.09,2.03,0.51,4.46-0.39,6.03c-7.51,13.16-15.7,25.84-27.63,35.59
		c-0.77,0.63-1.47,1.48-2.36,1.82c-1.48,0.56-3.5,1.53-4.53,0.96C181.9,118.3,181.47,116.17,180.7,114.67z"/>
</g>
</svg>
